Coordinates
version=1
nRows=18
nColumns=28
inDegrees=yes

Units are S.I. units (second, meters, Newtons, ...)
If the header above contains a line with 'inDegrees', this indicates whether rotational values are in degrees (yes) or radians (no).

endheader
time	pelvis_tilt	pelvis_list	pelvis_rotation	pelvis_tx	pelvis_ty	pelvis_tz	hip_flexion_r	hip_adduction_r	hip_rotation_r	knee_angle_r	knee_angle_r_ie	knee_angle_r_vv	ankle_angle_r	subtalar_angle_r	mtp_angle_r	hip_flexion_l	hip_adduction_l	hip_rotation_l	knee_angle_l	knee_angle_l_ie	knee_angle_l_vv	ankle_angle_l	subtalar_angle_l	mtp_angle_l	lumbar_extension	lumbar_bending	lumbar_rotation
      3.02500000	      0.99901233	      3.86711175	     17.91893592	     -0.81247790	      0.91628673	      0.37757438	     -7.98333733	     -5.12508123	    -20.29038717	     -1.71535882	    -18.00305400	     -0.84750807	      9.89801280	     -1.45456971	      0.00000000	     -3.68990881	      3.08428558	      4.58490924	      1.04143420	     12.13766050	     -2.89260404	      6.53004096	     -4.67459656	      0.00000000	     -6.53828406	     -4.51814008	      0.97500932
      3.03000000	      1.00187338	      3.86103158	     17.88315491	     -0.81246227	      0.91625815	      0.37748414	     -7.98857787	     -5.12571993	    -20.26323809	     -1.69755086	    -17.98920811	     -0.85430548	      9.87314922	     -1.45749983	      0.00000000	     -3.66229369	      3.10255991	      4.57409756	      0.98268260	     12.15316647	     -2.87499530	      6.56981432	     -4.70263866	      0.00000000	     -6.57593464	     -4.52330948	      0.96221456
      3.03500000	      1.00597751	      3.85297965	     17.84643195	     -0.81243531	      0.91623405	      0.37737011	     -7.99663287	     -5.12771172	    -20.22358896	     -1.67733484	    -17.98368748	     -0.85700723	      9.84067160	     -1.46776907	      0.00000000	     -3.63646711	      3.11741962	      4.57094334	      0.92030921	     12.16708361	     -2.86132715	      6.63105174	     -4.73661556	      0.00000000	     -6.61414007	     -4.52283514	      0.94969389
      3.04000000	      1.01178667	      3.83782725	     17.81301628	     -0.81240445	      0.91621540	      0.37724505	     -8.00458096	     -5.12220540	    -20.18469070	     -1.65995416	    -17.98331345	     -0.85675140	      9.81075124	     -1.48093249	      0.00000000	     -3.60814220	      3.12431428	      4.56966592	      0.85554225	     12.18018687	     -2.84759087	      6.68883228	     -4.76825287	      0.00000000	     -6.64828952	     -4.51580058	      0.93787681
      3.04500000	      1.01588417	      3.81764556	     17.77618839	     -0.81235879	      0.91619941	      0.37708808	     -8.01126581	     -5.11837426	    -20.14313584	     -1.64166397	    -17.98366408	     -0.84973531	      9.77524108	     -1.49632405	      0.00000000	     -3.57975597	      3.12700533	      4.57042543	      0.79167486	     12.19273705	     -2.83715918	      6.75887581	     -4.80337235	      0.00000000	     -6.67952650	     -4.49984478	      0.92362484
      3.05000000	      1.01433706	      3.78376498	     17.74876372	     -0.81233101	      0.91617737	      0.37694427	     -8.00661564	     -5.09897645	    -20.10749534	     -1.62297618	    -17.98712902	     -0.84357484	      9.73805435	     -1.51797627	      0.00000000	     -3.53517986	      3.11090597	      4.57778889	      0.71713329	     12.19865192	     -2.83692044	      6.83788817	     -4.83866354	      0.00000000	     -6.70686117	     -4.47340114	      0.90062242
      3.05500000	      1.01653132	      3.75747816	     17.71758834	     -0.81227717	      0.91617400	      0.37676265	     -8.01288707	     -5.09424557	    -20.08114237	     -1.60944281	    -17.98011560	     -0.82713777	      9.70818485	     -1.52473847	      0.00000000	     -3.50122451	      3.10932244	      4.57417142	      0.64688442	     12.21140098	     -2.82110470	      6.89360852	     -4.86874342	      0.00000000	     -6.72848469	     -4.45840214	      0.88349648
      3.06000000	      1.01770847	      3.72649277	     17.68653824	     -0.81222910	      0.91616994	      0.37656556	     -8.02079309	     -5.08888195	    -20.05159929	     -1.58980186	    -17.97529281	     -0.80266019	      9.67179756	     -1.53340171	      0.00000000	     -3.46408342	      3.10160127	      4.57487046	      0.57308741	     12.22032508	     -2.81428757	      6.97455973	     -4.90340919	      0.00000000	     -6.75185112	     -4.43579167	      0.85875511
      3.06500000	      1.01698156	      3.68269295	     17.64994745	     -0.81215814	      0.91615599	      0.37639907	     -8.02769595	     -5.06773291	    -20.00747106	     -1.56029753	    -17.97390993	     -0.77847514	      9.63357412	     -1.54599432	      0.00000000	     -3.42158305	      3.07540878	      4.57179127	      0.49699695	     12.22848924	     -2.81703938	      7.06697331	     -4.94005507	      0.00000000	     -6.76606573	     -4.40525229	      0.83568807
      3.07000000	      1.01202264	      3.64085141	     17.61628776	     -0.81208247	      0.91613510	      0.37618312	     -8.04082297	     -5.05856035	    -19.95083332	     -1.52443639	    -17.98700043	     -0.73703940	      9.58659693	     -1.56778467	      0.00000000	     -3.37797529	      3.05692872	      4.57677473	      0.42270207	     12.23247182	     -2.81612427	      7.17234956	     -4.97710035	      0.00000000	     -6.77785676	     -4.37149954	      0.81071566
      3.07500000	      1.00826442	      3.60246405	     17.59015568	     -0.81202343	      0.91611211	      0.37596082	     -8.06431965	     -5.05188444	    -19.87508783	     -1.47464179	    -18.02189066	     -0.69077239	      9.53664813	     -1.60666261	      0.00000000	     -3.33263193	      3.03979487	      4.59162438	      0.34328441	     12.23286904	     -2.81909547	      7.28027582	     -5.01047660	      0.00000000	     -6.79311530	     -4.34177578	      0.77950687
      3.08000000	      1.00629096	      3.56392891	     17.56417967	     -0.81197087	      0.91608023	      0.37572000	     -8.09156079	     -5.04958607	    -19.79517920	     -1.43293878	    -18.05723212	     -0.63545649	      9.48387395	     -1.63882085	      0.00000000	     -3.28686641	      3.02493735	      4.60240042	      0.25718485	     12.24276452	     -2.81947985	      7.38888005	     -5.04777539	      0.00000000	     -6.81368979	     -4.31594097	      0.74632505
      3.08500000	      1.00900109	      3.53151438	     17.52714088	     -0.81188780	      0.91604633	      0.37547601	     -8.13291536	     -5.05130657	    -19.68821695	     -1.37282598	    -18.10812057	     -0.58145155	      9.42866219	     -1.68025722	      0.00000000	     -3.25430817	      3.01450302	      4.61638455	      0.17783648	     12.25320439	     -2.82297924	      7.50800464	     -5.08394819	      0.00000000	     -6.83350132	     -4.29452291	      0.72847130
      3.09000000	      1.02013439	      3.50763400	     17.49407294	     -0.81179739	      0.91601570	      0.37517093	     -8.19071618	     -5.06527648	    -19.56659425	     -1.31485633	    -18.18238938	     -0.51776681	      9.37037250	     -1.73663238	      0.00000000	     -3.23540579	      3.01736801	      4.64020186	      0.09752598	     12.26361857	     -2.81638363	      7.63212568	     -5.11405398	      0.00000000	     -6.85525688	     -4.27948978	      0.71357490
      3.09500000	      1.02622884	      3.49174759	     17.44686028	     -0.81172593	      0.91598224	      0.37487757	     -8.23111891	     -5.09222915	    -19.48817502	     -1.27729091	    -18.20021501	     -0.46401888	      9.32278685	     -1.74595091	      0.00000000	     -3.21196366	      3.03121572	      4.63033653	      0.01794735	     12.28998024	     -2.81714626	      7.72792492	     -5.14914085	      0.00000000	     -6.89862766	     -4.27588705	      0.70584900
      3.10000000	      1.03621232	      3.47507570	     17.40094637	     -0.81163914	      0.91594123	      0.37457603	     -8.27594271	     -5.11254613	    -19.39771201	     -1.23200419	    -18.23915245	     -0.41890599	      9.27698011	     -1.77014609	      0.00000000	     -3.19314889	      3.04045153	      4.64173928	     -0.06389573	     12.30299400	     -2.81939715	      7.86001844	     -5.18243479	      0.00000000	     -6.93602399	     -4.26949665	      0.71089361
      3.10500000	      1.04234471	      3.45515889	     17.35987684	     -0.81156713	      0.91589358	      0.37425311	     -8.30653592	     -5.13044407	    -19.32023997	     -1.20097562	    -18.27404656	     -0.38118843	      9.23611824	     -1.79292818	      0.00000000	     -3.16713435	      3.04928923	      4.65283289	     -0.14749002	     12.31772235	     -2.81976635	      7.97892755	     -5.21007251	      0.00000000	     -6.96848546	     -4.26161094	      0.71334583
      3.11000000	      1.04502906	      3.43500328	     17.30780294	     -0.81148028	      0.91584239	      0.37391701	     -8.32035893	     -5.15132092	    -19.26953451	     -1.19280360	    -18.27533642	     -0.35486062	      9.20313590	     -1.79226617	      0.00000000	     -3.13982536	      3.06232463	      4.64549927	     -0.22851451	     12.34102110	     -2.81641414	      8.07200368	     -5.24227487	      0.00000000	     -6.99779237	     -4.26109237	      0.71795221
